<?xml version="1.0" encoding="UTF-8" standalone="no"?>
<svg
   xmlns:osb="http://www.openswatchbook.org/uri/2009/osb"
   xmlns:dc="http://purl.org/dc/elements/1.1/"
   xmlns:cc="http://creativecommons.org/ns#"
   xmlns:rdf="http://www.w3.org/1999/02/22-rdf-syntax-ns#"
   xmlns:svg="http://www.w3.org/2000/svg"
   xmlns="http://www.w3.org/2000/svg"
   id="svg8"
   version="1.1"
   viewBox="0 0 210 297"
   height="297mm"
   width="210mm">
  <defs
     id="defs2">
    <linearGradient
       osb:paint="solid"
       id="linearGradient6134">
      <stop
         id="stop6132"
         offset="0"
         style="stop-color:#000000;stop-opacity:1;" />
    </linearGradient>
    <filter
       id="filter3746"
       style="color-interpolation-filters:sRGB;">
      <feColorMatrix
         id="feColorMatrix3742"
         result="colormatrix"
         values="1 0 0 0 0 0 1 0 0 0 0 0 1 0 0 0 0 0 5 -1 " />
      <feComposite
         id="feComposite3744"
         result="fbSourceGraphic"
         k2="0.802083"
         operator="arithmetic"
         in2="colormatrix" />
      <feColorMatrix
         id="feColorMatrix3748"
         values="0 0 0 -1 0 0 0 0 -1 0 0 0 0 -1 0 0 0 0 1 0"
         in="fbSourceGraphic"
         result="fbSourceGraphicAlpha" />
      <feColorMatrix
         in="fbSourceGraphic"
         result="colormatrix"
         values="1 0 0 0 0 0 1 0 0 0 0 0 1 0 0 0 0 0 5 -1 "
         id="feColorMatrix3750" />
      <feComposite
         result="composite"
         k2="0.8"
         operator="arithmetic"
         id="feComposite3752"
         in2="colormatrix" />
    </filter>
    <filter
       id="filter4581"
       style="color-interpolation-filters:sRGB;">
      <feColorMatrix
         id="feColorMatrix4577"
         result="colormatrix"
         values="1 0 0 0 0 0 1 0 0 0 0 0 1 0 0 0 0 0 5 -1 " />
      <feComposite
         id="feComposite4579"
         result="fbSourceGraphic"
         k2="1"
         operator="arithmetic"
         in2="colormatrix" />
      <feColorMatrix
         id="feColorMatrix4583"
         values="0 0 0 -1 0 0 0 0 -1 0 0 0 0 -1 0 0 0 0 1 0"
         in="fbSourceGraphic"
         result="fbSourceGraphicAlpha" />
      <feColorMatrix
         in="fbSourceGraphic"
         result="colormatrix"
         values="1 0 0 0 0 0 1 0 0 0 0 0 1 0 0 0 0 0 5 -1 "
         id="feColorMatrix4585" />
      <feComposite
         result="composite"
         k2="1"
         operator="arithmetic"
         id="feComposite4587"
         in2="colormatrix" />
    </filter>
  </defs>
  <metadata
     id="metadata5">
    <rdf:RDF>
      <cc:Work
         rdf:about="">
        <dc:format>image/svg+xml</dc:format>
        <dc:type
           rdf:resource="http://purl.org/dc/dcmitype/StillImage" />
        <dc:title></dc:title>
      </cc:Work>
    </rdf:RDF>
  </metadata>
  <g
     id="layer1">
    <path
       transform="scale(0.26458333)"
       id="path3760"
       d="m 185.13899,245.88558 v -47.45729 l 2.17815,-0.0826 c 1.19797,-0.0455 2.90261,-0.0828 3.78807,-0.083 l 1.60993,-3.9e-4 v 43.56283 43.56283 h 10.92227 10.92228 v 3.97747 3.97748 h -14.71035 -14.71035 z"
       style="fill:none;stroke-width:0.12626907;opacity:0" />
    <g
       style="filter:url(#filter4581)"
       transform="translate(-0.22033348,-13.4966)"
       id="g4575">
      <circle
         id="path3710"
         cx="50.01503"
         cy="64.977982"
         r="29.104164"
         style="fill:#a7062f;fill-opacity:1;stroke-width:0.43695262;filter:url(#filter3746)" />
      <circle
         id="path3756"
         cx="40.632446"
         cy="55.756691"
         r="3.5907733"
         style="fill:#ffffff;stroke-width:0.25453585" />
      <path
         style="fill:#ffffff;fill-opacity:1;stroke:none;stroke-width:0.26458332px;stroke-linecap:butt;stroke-linejoin:miter;stroke-opacity:1"
         d="m 48.853423,52.332964 v 25.440843 h 8.07924 V 75.364209 H 51.12128 V 52.314745 Z"
         id="path3758" />
      <path
         style="fill:#ffffff;stroke:none;stroke-width:0.26499999;stroke-linecap:butt;stroke-linejoin:miter;stroke-miterlimit:4;stroke-dasharray:none;stroke-opacity:1"
         d="m 51.098592,40.755339 v 2.255088 l -3.908816,0.150336 c 0,0 -4.543582,0.08352 -8.920121,3.157121 -4.386007,3.080248 -6.080381,5.813112 -6.080381,5.813112 0,0 -2.321904,2.973374 -3.173825,6.414468 -0.851924,3.441094 -2.288498,7.065939 0.551243,14.916981 2.839739,7.851042 12.127355,12.027127 12.127355,12.027127 0,0 10.356693,4.576993 19.878169,-1.637024 9.521478,-6.214018 10.089425,-15.167547 10.089425,-15.167547 l -0.03341,-2.53906 -14.699824,0.03341 0.03341,-2.171565 17.238885,0.03341 0.03341,3.608139 c 0,0 0.267268,7.817633 -8.118311,15.635266 -8.385583,7.817636 -19.811355,5.91334 -19.811355,5.91334 0,0 -12.528258,-1.236123 -18.241144,-13.530519 -5.712887,-12.294399 0.7684,-22.450642 0.7684,-22.450642 0,0 3.052807,-6.505363 11.279671,-10.416358 2.70061,-1.283851 4.298731,-1.598512 7.713168,-1.944857 z"
         id="path4569" />
    </g>
    <g
       transform="translate(-4.0475802,35.46419)"
       id="g4617">
      <path
         style="fill:#000000;stroke:#000000;stroke-width:0.26458332px;stroke-linecap:butt;stroke-linejoin:miter;stroke-opacity:1"
         d="m 58.652298,95.318415 c 0,0 -3.648231,2.993419 -6.361017,8.980255 -2.712783,5.98684 -2.899873,10.47696 -2.899873,10.47696 l -0.374176,2.71279 0.03777,8.85932 19.150163,0.006 -0.01135,-10.3617 c 0,0 -1.590255,-14.03169 -9.541521,-20.673335 z"
         id="path4591" />
      <path
         style="fill:#000000;stroke:#000000;stroke-width:0.26458332px;stroke-linecap:butt;stroke-linejoin:miter;stroke-opacity:1"
         d="m 69.717707,126.34375 22.688021,0.0661 c 0,0 3.439583,-8.06979 3.505729,-10.71563 0.06615,-2.64583 0.06614,-5.95312 0.06614,-5.95312 0,0 -6.813021,-0.0662 -14.2875,4.89479 -7.474479,4.96093 -11.972396,11.70781 -11.972396,11.70781 z"
         id="path4595" />
      <path
         id="path4597"
         d="m 47.28938,126.07917 -22.688021,0.0661 c 0,0 -3.439583,-8.06979 -3.505729,-10.71563 -0.06615,-2.64583 -0.06614,-5.95312 -0.06614,-5.95312 0,0 6.813021,-0.0662 14.2875,4.89479 7.474479,4.96093 11.972396,11.70781 11.972396,11.70781 z"
         style="fill:#000000;stroke:#000000;stroke-width:0.26458332px;stroke-linecap:butt;stroke-linejoin:miter;stroke-opacity:1" />
      <path
         style="fill:#000000;stroke:#000000;stroke-width:0.26458332px;stroke-linecap:butt;stroke-linejoin:miter;stroke-opacity:1"
         d="m 26.19375,129.12187 2.248958,3.175 h 60.060416 l 2.248958,-3.30729 z"
         id="path4599" />
      <path
         style="fill:#000000;stroke:#000000;stroke-width:0.26458332px;stroke-linecap:butt;stroke-linejoin:miter;stroke-opacity:1"
         d="m 30.823958,134.81042 2.778125,3.175 h 49.873958 l 2.910416,-3.175 z"
         id="path4601" />
      <path
         style="fill:#000000;stroke:#000000;stroke-width:0.26458332px;stroke-linecap:butt;stroke-linejoin:miter;stroke-opacity:1"
         d="m 37.041666,140.63125 h 16.139583 l 0.132292,6.35 c 0,0 -10.054167,-0.52917 -16.271875,-6.35 z"
         id="path4603" />
      <path
         id="path4605"
         d="M 80.233677,140.63125 H 64.094094 l -0.132292,6.35 c 0,0 10.054167,-0.52917 16.271875,-6.35 z"
         style="fill:#000000;stroke:#000000;stroke-width:0.26458332px;stroke-linecap:butt;stroke-linejoin:miter;stroke-opacity:1" />
      <path
         style="fill:#000000;stroke:#000000;stroke-width:0.26458332px;stroke-linecap:butt;stroke-linejoin:miter;stroke-opacity:1"
         d="m 58.605208,146.81588 -4.729427,-6.11849 9.392708,0.0331 z"
         id="path4607" />
    </g>
    <rect
       y="-81.972176"
       x="102.37436"
       height="40.737812"
       width="46.519901"
       id="rect4632"
       style="opacity:0;fill:#ffffff;fill-opacity:1;stroke:none;stroke-width:0.26728013;stroke-miterlimit:4;stroke-dasharray:none" />
    <rect
       y="133.75208"
       x="81.756248"
       height="48.947918"
       width="49.080208"
       id="rect6138"
       style="opacity:0;fill:none;fill-opacity:1;stroke:none;stroke-width:0.26499999;stroke-miterlimit:4;stroke-dasharray:none;stroke-opacity:1" />
    <g
       transform="translate(62.466009,-42.727072)"
       id="g867">
      <rect
         style="opacity:1;fill:#000000;fill-opacity:1;stroke:none;stroke-width:0.26728484;stroke-miterlimit:4;stroke-dasharray:none;stroke-opacity:1"
         id="rect858"
         width="49.297859"
         height="49.204319"
         x="65.200401"
         y="174.08273" />
      <ellipse
         style="opacity:1;fill:#ffffff;fill-opacity:1;stroke:none;stroke-width:0.29496869;stroke-miterlimit:4;stroke-dasharray:none;stroke-opacity:1"
         id="path860"
         cx="89.896111"
         cy="198.82523"
         rx="21.795832"
         ry="21.936148" />
      <path
         style="opacity:1;fill:#000000;stroke:#000000;stroke-width:0.26458332px;stroke-linecap:butt;stroke-linejoin:miter;stroke-opacity:1"
         d="m 67.983344,197.42206 c 0,0 23.970735,3.60145 26.402888,-20.25236 l 2.350303,0.64312 0.04677,41.87279 -2.432153,0.61973 c 0,0 -0.157703,-20.86084 -26.368113,-20.41711 z"
         id="path862" />
    </g>
    <g
       transform="translate(-42.853277,1.2089225)"
       id="g878">
      <path
         style="fill:#e30923;fill-opacity:1;stroke:none;stroke-width:0.26458332px;stroke-linecap:butt;stroke-linejoin:miter;stroke-opacity:1"
         d="m 68.857812,229.06822 0.132291,40.87813 17.131771,-40.81198 z"
         id="path869" />
      <path
         id="path871"
         d="M 115.29218,229.13437 115.15989,270.0125 98.028124,229.20052 Z"
         style="fill:#e30923;fill-opacity:1;stroke:none;stroke-width:0.26458332px;stroke-linecap:butt;stroke-linejoin:miter;stroke-opacity:1" />
      <path
         style="fill:#e30923;fill-opacity:1"
         d="m 84.732812,261.81041 7.342187,-17.33021 10.847921,25.59845 -7.077609,0.0661 -3.307291,-8.33437 z"
         id="path873" />
    </g>
    <g
       style="fill:#ffcb34;fill-opacity:1"
       transform="translate(-21.141019,-91.860539)"
       id="g886">
      <path
         style="fill:#ffcb34;fill-opacity:1;stroke:none;stroke-width:0.26458332px;stroke-linecap:butt;stroke-linejoin:miter;stroke-opacity:1"
         d="m 141.71967,172.11831 9.16734,0.0935 c 0,0 -0.25706,-46.99599 8.69963,-56.68786 2.9864,-3.23154 5.72988,-0.0946 7.79069,5.62934 1.04025,2.88934 1.9304,6.34252 2.63794,9.77693 1.98623,9.64122 2.48048,19.01804 2.48048,19.01804 l 0.56127,17.77347 h 4.95785 l -0.37418,-36.66371 c 0,0 -2.11343,-7.70228 -5.74132,-13.69849 -1.69489,-2.80133 -3.47147,-5.03489 -5.86297,-6.38888 -1.22069,-0.69112 -2.55284,-1.03516 -4.01761,-1.15286 -4.94285,-0.3972 -9.13584,5.83694 -11.9887,12.4349 -3.19412,7.38721 -4.56865,15.06713 -4.56865,15.06713 l -1.69913,8.50995 -1.20074,8.23449 z"
         id="path880" />
      <path
         id="path882"
         d="m 213.65525,172.21185 -9.16734,0.0935 c 0,0 0.25706,-46.99599 -8.69963,-56.68786 -2.9864,-3.23154 -5.72988,-0.0946 -7.79069,5.62934 -1.04025,2.88934 -1.9304,6.34252 -2.63794,9.77693 -1.98623,9.64122 -2.48048,19.01804 -2.48048,19.01804 l -0.56127,17.77347 h -4.95785 l 0.20882,-36.72986 c 0,0 2.27879,-7.63613 5.90668,-13.63234 1.69489,-2.80133 3.47147,-5.03489 5.86297,-6.38888 1.22069,-0.69112 2.55284,-1.03516 4.01761,-1.15286 4.94285,-0.3972 9.13584,5.83694 11.9887,12.4349 3.19412,7.38721 4.56865,15.06713 4.56865,15.06713 l 1.69913,8.50995 1.20074,8.23449 z"
         style="fill:#ffcb34;fill-opacity:1;stroke:none;stroke-width:0.26458332px;stroke-linecap:butt;stroke-linejoin:miter;stroke-opacity:1" />
    </g>
  </g>
</svg>
